PathFileType	4	(X/Y/Z)	SUBJ11_3_walk_RCNL2025.trc
DataRate	CameraRate	NumFrames	NumMarkers	Units	OrigDataRate	OrigDataStartFrame	OrigNumFrames
100	100	4	25	mm	100	217	432
Frame#	Time	R_Shoulder			L_Shoulder			C7			J_Notch			R_Elbow			L_Elbow			R_Wrist			L_Wrist			R_Asis			L_Asis			Sacral			Thoracic			Sternum			R_Thigh_Lateral			R_Knee_Lateral			R_Shank_Lateral			R_Ankle_Lateral			R_Heel			R_Toe			L_Thigh_Lateral			L_Knee_Lateral			L_Shank_Lateral			L_Ankle_Lateral			L_Heel			L_Toe		
		X1	Y1	Z1	X2	Y2	Z2	X3	Y3	Z3	X4	Y4	Z4	X5	Y5	Z5	X6	Y6	Z6	X7	Y7	Z7	X8	Y8	Z8	X9	Y9	Z9	X10	Y10	Z10	X11	Y11	Z11	X12	Y12	Z12	X13	Y13	Z13	X14	Y14	Z14	X15	Y15	Z15	X16	Y16	Z16	X17	Y17	Z17	X18	Y18	Z18	X19	Y19	Z19	X20	Y20	Z20	X21	Y21	Z21	X22	Y22	Z22	X23	Y23	Z23	X24	Y24	Z24	X25	Y25	Z25
217	2.16000000	639.731079	1443.847290	74.927567	634.087219	1428.849487	-323.962830	587.442505	1481.047119	-122.381454	739.953674	1384.836426	-117.231903	596.664856	1105.754395	173.484772	595.414734	1084.132568	-396.912506	670.976929	854.143158	178.819450	644.995697	824.282471	-376.430405	699.338135	957.022766	42.095921	714.001648	961.032837	-251.972534	531.487671	983.483276	-117.600258	517.511169	1299.547241	-119.527832	807.706787	1184.967407	-110.106895	636.897217	610.379700	102.081665	633.124268	463.991486	46.315975	472.011322	336.695343	64.220535	318.847504	219.015030	-16.566584	279.145996	252.500153	-74.399567	375.607574	91.704903	-36.372124	684.089722	615.268982	-323.023315	734.353455	468.436401	-240.050629	734.777405	258.165222	-271.546997	724.866943	64.545189	-203.588654	666.490173	56.758541	-153.103836	857.826904	46.458366	-170.610977
218	2.17000000	650.339905	1445.682495	75.199127	645.931580	1431.759033	-323.885468	598.534241	1483.677734	-122.222450	750.806824	1387.195557	-117.002312	605.675598	1107.081055	171.248001	612.227905	1086.519165	-397.517181	672.950043	853.531769	176.428101	669.068237	828.192261	-375.084808	710.675415	960.125793	41.051655	724.067444	963.415466	-252.830612	542.163818	986.013184	-117.887260	528.278625	1302.176880	-120.087563	818.102966	1187.153442	-110.359489	655.874084	613.468018	102.695801	656.392822	467.278717	47.442070	495.867188	340.087097	65.188255	343.370422	221.380890	-15.786767	303.182312	254.195145	-73.821320	401.638977	95.171730	-33.905373	688.405151	616.713806	-322.842682	735.785706	468.608612	-239.725311	735.283264	258.316620	-271.333252	724.855286	64.647949	-203.500580	666.413818	56.845249	-152.981155	857.668091	46.515842	-170.558746
219	2.18000000	660.911316	1447.343018	75.510834	657.792236	1434.684570	-323.687836	609.607727	1486.171875	-121.941483	761.637268	1389.388794	-116.686417	614.461731	1108.348633	169.067490	628.945984	1089.033081	-398.100189	675.079987	853.144409	173.937263	693.149475	832.491119	-373.648819	721.985413	963.244812	39.972984	734.015564	965.653442	-253.701675	552.762939	988.418457	-118.155487	539.002930	1304.671143	-120.620941	828.420837	1189.173828	-110.586105	674.690918	616.719543	103.309135	679.397705	470.775238	48.467491	520.199402	342.654938	66.243538	368.859863	221.997406	-14.772487	328.094391	254.129501	-72.836044	429.529205	97.394577	-32.042629	692.558594	618.082825	-322.527405	737.023865	468.804688	-239.258591	735.556274	258.515015	-271.016663	724.820679	64.773354	-203.356262	666.333191	56.929211	-152.818481	857.516174	46.571239	-170.456711
220	2.19000000	671.465393	1448.804321	75.840088	669.631104	1437.590210	-323.382782	620.668518	1488.480835	-121.569565	772.457947	1391.381104	-116.307991	622.955750	1109.542969	166.960144	645.557312	1091.630859	-398.669525	677.399506	852.953552	171.371819	717.203522	837.146240	-372.141815	733.274231	966.315430	38.888176	743.864502	967.690125	-254.577026	563.287109	990.653503	-118.385025	549.705383	1306.984009	-121.141754	838.706360	1191.009521	-110.809731	693.305115	620.055725	103.900192	702.119690	474.361298	49.368954	545.028809	344.290955	67.365479	395.283508	220.882324	-13.527964	353.843628	252.304947	-71.454948	459.146820	98.369949	-30.741859	696.654236	619.347412	-322.104706	738.093018	469.014984	-238.679474	735.575317	258.749298	-270.616577	724.753296	64.905785	-203.144272	666.246826	57.006443	-152.619507	857.374268	46.626965	-170.316910
